<svg aria-hidden="true" style="position: absolute; width:0; height: 0; overflow: hidden;" version="1.1" xmlns="http://www.w3.org/2000/svg" xmlns:xlink="http://www.w3.org/1999/xlink">
  <defs>
    <symbol viewBox="0 0 24 24" id="alien">
      <g fill="none" stroke-linecap="round" stroke-linejoin="round" stroke-width="1.5">
        <path d="M15.001 9.99a2.996 2.996 0 0 1-2.997 2.995A2.996 2.996 0 1 1 15 9.989m-3.006 6.989h.01m8.491-14.976c-.166.899-.999 2.756-2.997 2.995M3.512 2.002c.166.899.999 2.756 2.997 2.995">
        </path>
        <path d="M8.84 3.694c-3.254 1.448-4.396 4.93-4.32 6.772c-1.122-.076-2.498.05-2.519 1.485s1.464 1.69 2.52 1.518v6.407c.017.53.065 1.225.614 1.468c1.276.566 2.351-1.151 3.52-1.072c.908.061 2.222 1.82 3.378 1.723c1.338-.111 2.369-1.718 3.393-1.718c1.213 0 1.426 1 2.888 1.16c1.09.12 1.2-.92 1.2-1.48v-6.476c1.89.234 2.639-.603 2.458-1.782c-.213-1.391-1.847-1.292-2.497-1.203c.101-1.034-.365-2.34-.566-2.852c-.297-.91-1.517-3.064-4.137-4.132s-5.059-.278-5.932.182">
        </path>
      </g>
    </symbol>
    <symbol viewBox="0 0 24 24" id="crab">
      <g fill="none" stroke-linecap="round" stroke-linejoin="round" stroke-width="1.5">
        <path d="M7.5 14A6 6 0 1 1 10 2.36L8 5l2 2S7 8 2 8m14.5 6A6 6 0 1 0 14 2.36L16 5l-2 2s3 1 8 1m-12 5v-2m4 2v-2"></path>
        <ellipse cx="12" cy="17.5" rx="7" ry="4.5"></ellipse>
        <path d="M2 16c2 0 3 1 3 1m-3 5c0-1.7 1.3-3 3-3m14-2s1-1 3-1m-3 3c1.7 0 3 1.3 3 3"></path>
      </g>
    </symbol>
    <symbol viewBox="0 0 24 24" id="mask">
      <g fill="none" stroke-linecap="round" stroke-linejoin="round" stroke-width="1.5">
      <path d="M2 12a10 10 0 1 0 20 0c0-4.1-.4-6.6-1.9-8.1S16.1 2 12 2s-6.6.4-8.1 1.9S2 7.9 2 12m10-6h.01"></path>
      <circle cx="8" cy="10.5" r="2"></circle>
      <circle cx="16" cy="10.5" r="2"></circle>
      <path d="M8.5 17h.01M12 15h.01m3.49 2h.01"></path>
      </g>
    </symbol>
  </defs>
</svg>
