<svg aria-hidden="true" style="position: absolute; width:0; height: 0; overflow: hidden;" version="1.1" xmlns="http://www.w3.org/2000/svg" xmlns:xlink="http://www.w3.org/1999/xlink">
  <defs>

    <symbol viewBox="0 0 24 24" id="alien">
      <g fill="none" stroke-linecap="round" stroke-linejoin="round" stroke-width="1.5">
        <path d="M15.001 9.99a2.996 2.996 0 0 1-2.997 2.995A2.996 2.996 0 1 1 15 9.989m-3.006 6.989h.01m8.491-14.976c-.166.899-.999 2.756-2.997 2.995M3.512 2.002c.166.899.999 2.756 2.997 2.995">
        </path>
        <path d="M8.84 3.694c-3.254 1.448-4.396 4.93-4.32 6.772c-1.122-.076-2.498.05-2.519 1.485s1.464 1.69 2.52 1.518v6.407c.017.53.065 1.225.614 1.468c1.276.566 2.351-1.151 3.52-1.072c.908.061 2.222 1.82 3.378 1.723c1.338-.111 2.369-1.718 3.393-1.718c1.213 0 1.426 1 2.888 1.16c1.09.12 1.2-.92 1.2-1.48v-6.476c1.89.234 2.639-.603 2.458-1.782c-.213-1.391-1.847-1.292-2.497-1.203c.101-1.034-.365-2.34-.566-2.852c-.297-.91-1.517-3.064-4.137-4.132s-5.059-.278-5.932.182">
        </path>
      </g>
    </symbol>

    <symbol viewBox="0 0 24 24" id="crab">
      <g fill="none" stroke-linecap="round" stroke-linejoin="round" stroke-width="1.5">
        <path d="M7.5 14A6 6 0 1 1 10 2.36L8 5l2 2S7 8 2 8m14.5 6A6 6 0 1 0 14 2.36L16 5l-2 2s3 1 8 1m-12 5v-2m4 2v-2"></path>
        <ellipse cx="12" cy="17.5" rx="7" ry="4.5"></ellipse>
        <path d="M2 16c2 0 3 1 3 1m-3 5c0-1.7 1.3-3 3-3m14-2s1-1 3-1m-3 3c1.7 0 3 1.3 3 3"></path>
      </g>
    </symbol>

    <symbol viewBox="0 0 24 24" id="mask">
      <g fill="none" stroke-linecap="round" stroke-linejoin="round" stroke-width="1.5">
      <path d="M2 12a10 10 0 1 0 20 0c0-4.1-.4-6.6-1.9-8.1S16.1 2 12 2s-6.6.4-8.1 1.9S2 7.9 2 12m10-6h.01"></path>
      <circle cx="8" cy="10.5" r="2"></circle>
      <circle cx="16" cy="10.5" r="2"></circle>
      <path d="M8.5 17h.01M12 15h.01m3.49 2h.01"></path>
      </g>
    </symbol>

    <symbol viewBox="0 0 32 32" id="sign-in">
      <path d="M26 30H14a2 2 0 0 1-2-2v-3h2v3h12V4H14v3h-2V4a2 2 0 0 1 2-2h12a2 2 0 0 1 2 2v24a2 2 0 0 1-2 2"></path>
      <path d="M14.59 20.59L18.17 17H4v-2h14.17l-3.58-3.59L16 10l6 6l-6 6z"></path>
    </symbol>

    <symbol viewBox="0 0 32 32" id="sign-out">
      <path d="M6 30h12a2 2 0 0 0 2-2v-3h-2v3H6V4h12v3h2V4a2 2 0 0 0-2-2H6a2 2 0 0 0-2 2v24a2 2 0 0 0 2 2"></path>
      <path d="M20.586 20.586L24.172 17H10v-2h14.172l-3.586-3.586L22 10l6 6l-6 6z"></path>
    </symbol>
    
    <symbol viewBox="0 0 32 32" id="register">
      <path d="m20 20l1.4 1.4l-2.6 2.6H28v2h-9.2l2.6 2.6L20 30l-5-5zm-6-5h8v2h-8zm0-7h8v2h-8z"></path>
      <path d="M13 28H8v-4h2v-2H8v-5h2v-2H8v-5h2V8H8V4h18v16h2V4c0-1.1-.9-2-2-2H8c-1.1 0-2 .9-2 2v4H4v2h2v5H4v2h2v5H4v2h2v4c0 1.1.9 2 2 2h5z"></path>
    </symbol>

    <symbol viewBox="0 0 24 24" id="chilli">
      <g fill="none" stroke-linecap="round" stroke-linejoin="round" stroke-width="1.5">
        <path d="M18 7V4a2 2 0 0 0-4 0m0 6s2 0 4 2c2-2 4-2 4-2"></path>
        <path d="M22 10c0 6.6-5.4 12-12 12c-4.4 0-8-2.7-8-6v-.4C3.3 17.1 5 18 7 18c3.9 0 7-3.6 7-8c0-1.7 1.3-3 3-3h2c1.7 0 3 1.3 3 3"></path>
      </g>
    </symbol>

    <symbol viewBox="0 0 24 24" id="island">
      <g fill="none" stroke-linecap="round" stroke-linejoin="round" stroke-width="1.5">
        <circle cx="6" cy="7" r="3"></circle>
        <path d="M16 14s1-3 1-8V4s-1-2-3-2c-1 0-2 .5-2 .5"></path>
        <path d="M13 8a4 4 0 0 1 8 0"></path>
        <path d="M17 4s1-2 3-2c1 0 2 .5 2 .5M19.75 19A8 8 0 0 0 4 21"></path>
        <path d="M2 20c.6.5 1.2 1 2.5 1c2.5 0 2.5-2 5-2c2.6 0 2.4 2 5 2c2.5 0 2.5-2 5-2c1.3 0 1.9.5 2.5 1"></path>
      </g>
    </symbol>

    <symbol viewBox="0 0 24 24" id="butterfly">
      <g fill="none" stroke-linecap="round" stroke-linejoin="round" stroke-width="2">
        <path d="M15.8 2C12 3.8 12 9 12 9s0-5.2-3.8-7M12 9v11"></path>
        <path d="M20 5c-3.5 0-6.5 3.9-8 6.3C10.5 8.9 7.5 5 4 5a2 2 0 0 0-2 2c0 2.3.6 4.4 1.5 5.6C4 13.5 4.9 14 6 14h2c-.9.4-2.1.9-2.6 1.5c-1.6 1.6-.9 3.4.7 4.9c1.6 1.6 3.4 2.3 4.9.7c.3-.3 1-1.1 1-1.1s.6.8 1 1.1c1.6 1.6 3.4.9 4.9-.7c1.6-1.6 2.3-3.4.7-4.9c-.5-.5-1.7-1.1-2.6-1.5h2c1.1 0 2-.5 2.5-1.4c.9-1.2 1.5-3.3 1.5-5.6a2 2 0 0 0-2-2"></path>
      </g>
    </symbol>

    <symbol viewBox="0 0 32 32" id="at">
      <path d="M16 3A12.92 12.92 0 0 0 3 16v1a13 13 0 0 0 13 13h7v-2h-7A11 11 0 0 1 5 17v-1A10.94 10.94 0 0 1 16 5a10.64 10.64 0 0 1 11 11c0 3.59-1.4 5-3.66 5c-1.58 0-2.34-1.29-2.34-3v-8h-2v1.94A3.84 3.84 0 0 0 15.5 10a5.48 5.48 0 0 0-5.5 5.44v2.12A5.48 5.48 0 0 0 15.5 23a4.28 4.28 0 0 0 4-2.46A4.35 4.35 0 0 0 23.41 23c3.07 0 5.59-2 5.59-7A12.72 12.72 0 0 0 16 3m3 14.56a3.5 3.5 0 0 1-7 0v-2.12a3.5 3.5 0 0 1 7 0Z"></path>
    </symbol>

    <symbol viewBox="0 0 32 32" id="password">
      <path d="m25 30l-2.1-1c-1.7-.8-2.9-2.6-2.9-4.5V18h10v6.5c0 1.9-1.1 3.7-2.9 4.5zm-3-10v4.5c0 1.2.7 2.2 1.7 2.7l1.3.6l1.3-.6c1-.5 1.7-1.6 1.7-2.7V20z"></path>
      <circle cx="22" cy="10" r="2" fill="currentColor"></circle>
      <path d="M21 2c-5 0-9 4-9 9c0 .9.1 1.8.4 2.6L2 24v6h6l10-10l-1.4-1.4l-2.8 2.8l-1.4-1.4l-1.4 1.4l1.4 1.4l-1.6 1.6L9.4 23L8 24.4l1.4 1.4L7.2 28H4v-3.2l9.8-9.8l.8-.8l-.3-1.2c-.2-.7-.3-1.3-.3-2c0-3.9 3.1-7 7-7s7 3.1 7 7c0 1.5-.5 2.9-1.3 4H29c.6-1.2.9-2.6.9-4C30 6 26 2 21 2"></path>
    </symbol>

    <symbol viewBox="0 0 32 32" id="eye">
      <path d="M30.94 15.66A16.69 16.69 0 0 0 16 5A16.69 16.69 0 0 0 1.06 15.66a1 1 0 0 0 0 .68A16.69 16.69 0 0 0 16 27a16.69 16.69 0 0 0 14.94-10.66a1 1 0 0 0 0-.68M16 25c-5.3 0-10.9-3.93-12.93-9C5.1 10.93 10.7 7 16 7s10.9 3.93 12.93 9C26.9 21.07 21.3 25 16 25"></path>
      <path d="M16 10a6 6 0 1 0 6 6a6 6 0 0 0-6-6m0 10a4 4 0 1 1 4-4a4 4 0 0 1-4 4"></path>
    </symbol>

    <symbol viewBox="0 0 32 32" id="eye-off">
      <path d="m5.24 22.51l1.43-1.42A14.06 14.06 0 0 1 3.07 16C5.1 10.93 10.7 7 16 7a12.4 12.4 0 0 1 4 .72l1.55-1.56A14.7 14.7 0 0 0 16 5A16.69 16.69 0 0 0 1.06 15.66a1 1 0 0 0 0 .68a16 16 0 0 0 4.18 6.17"></path>
      <path d="M12 15.73a4 4 0 0 1 3.7-3.7l1.81-1.82a6 6 0 0 0-7.33 7.33zm18.94-.07a16.4 16.4 0 0 0-5.74-7.44L30 3.41L28.59 2L2 28.59L3.41 30l5.1-5.1A15.3 15.3 0 0 0 16 27a16.69 16.69 0 0 0 14.94-10.66a1 1 0 0 0 0-.68M20 16a4 4 0 0 1-6 3.44L19.44 14a4 4 0 0 1 .56 2m-4 9a13.05 13.05 0 0 1-6-1.58l2.54-2.54a6 6 0 0 0 8.35-8.35l2.87-2.87A14.54 14.54 0 0 1 28.93 16C26.9 21.07 21.3 25 16 25"></path>
    </symbol>

  </defs>
</svg>
