<svg aria-hidden="true" style="position: absolute; width:0; height: 0; overflow: hidden;" version="1.1" xmlns="http://www.w3.org/2000/svg" xmlns:xlink="http://www.w3.org/1999/xlink">
  <defs>

    <symbol viewBox="0 0 24 24" id="alien">
      <g fill="none" stroke-linecap="round" stroke-linejoin="round" stroke-width="1.5">
        <path d="M15.001 9.99a2.996 2.996 0 0 1-2.997 2.995A2.996 2.996 0 1 1 15 9.989m-3.006 6.989h.01m8.491-14.976c-.166.899-.999 2.756-2.997 2.995M3.512 2.002c.166.899.999 2.756 2.997 2.995">
        </path>
        <path d="M8.84 3.694c-3.254 1.448-4.396 4.93-4.32 6.772c-1.122-.076-2.498.05-2.519 1.485s1.464 1.69 2.52 1.518v6.407c.017.53.065 1.225.614 1.468c1.276.566 2.351-1.151 3.52-1.072c.908.061 2.222 1.82 3.378 1.723c1.338-.111 2.369-1.718 3.393-1.718c1.213 0 1.426 1 2.888 1.16c1.09.12 1.2-.92 1.2-1.48v-6.476c1.89.234 2.639-.603 2.458-1.782c-.213-1.391-1.847-1.292-2.497-1.203c.101-1.034-.365-2.34-.566-2.852c-.297-.91-1.517-3.064-4.137-4.132s-5.059-.278-5.932.182">
        </path>
      </g>
    </symbol>

    <symbol viewBox="0 0 24 24" id="crab">
      <g fill="none" stroke-linecap="round" stroke-linejoin="round" stroke-width="1.5">
        <path d="M7.5 14A6 6 0 1 1 10 2.36L8 5l2 2S7 8 2 8m14.5 6A6 6 0 1 0 14 2.36L16 5l-2 2s3 1 8 1m-12 5v-2m4 2v-2"></path>
        <ellipse cx="12" cy="17.5" rx="7" ry="4.5"></ellipse>
        <path d="M2 16c2 0 3 1 3 1m-3 5c0-1.7 1.3-3 3-3m14-2s1-1 3-1m-3 3c1.7 0 3 1.3 3 3"></path>
      </g>
    </symbol>

    <symbol viewBox="0 0 24 24" id="mask">
      <g fill="none" stroke-linecap="round" stroke-linejoin="round" stroke-width="1.5">
      <path d="M2 12a10 10 0 1 0 20 0c0-4.1-.4-6.6-1.9-8.1S16.1 2 12 2s-6.6.4-8.1 1.9S2 7.9 2 12m10-6h.01"></path>
      <circle cx="8" cy="10.5" r="2"></circle>
      <circle cx="16" cy="10.5" r="2"></circle>
      <path d="M8.5 17h.01M12 15h.01m3.49 2h.01"></path>
      </g>
    </symbol>

    <symbol viewBox="0 0 32 32" id="sign-in">
      <path d="M26 30H14a2 2 0 0 1-2-2v-3h2v3h12V4H14v3h-2V4a2 2 0 0 1 2-2h12a2 2 0 0 1 2 2v24a2 2 0 0 1-2 2"></path>
      <path d="M14.59 20.59L18.17 17H4v-2h14.17l-3.58-3.59L16 10l6 6l-6 6z"></path>
    </symbol>

    <symbol viewBox="0 0 32 32" id="sign-out">
      <path d="M6 30h12a2 2 0 0 0 2-2v-3h-2v3H6V4h12v3h2V4a2 2 0 0 0-2-2H6a2 2 0 0 0-2 2v24a2 2 0 0 0 2 2"></path>
      <path d="M20.586 20.586L24.172 17H10v-2h14.172l-3.586-3.586L22 10l6 6l-6 6z"></path>
    </symbol>
    
    <symbol viewBox="0 0 32 32" id="register">
      <path d="m20 20l1.4 1.4l-2.6 2.6H28v2h-9.2l2.6 2.6L20 30l-5-5zm-6-5h8v2h-8zm0-7h8v2h-8z"></path>
      <path d="M13 28H8v-4h2v-2H8v-5h2v-2H8v-5h2V8H8V4h18v16h2V4c0-1.1-.9-2-2-2H8c-1.1 0-2 .9-2 2v4H4v2h2v5H4v2h2v5H4v2h2v4c0 1.1.9 2 2 2h5z"></path>
    </symbol>

    <symbol viewBox="0 0 24 24" id="chilli">
      <g fill="none" stroke-linecap="round" stroke-linejoin="round" stroke-width="1.5">
        <path d="M18 7V4a2 2 0 0 0-4 0m0 6s2 0 4 2c2-2 4-2 4-2"></path>
        <path d="M22 10c0 6.6-5.4 12-12 12c-4.4 0-8-2.7-8-6v-.4C3.3 17.1 5 18 7 18c3.9 0 7-3.6 7-8c0-1.7 1.3-3 3-3h2c1.7 0 3 1.3 3 3"></path>
      </g>
    </symbol>

    <symbol viewBox="0 0 24 24" id="island">
      <g fill="none" stroke-linecap="round" stroke-linejoin="round" stroke-width="1.5">
        <circle cx="6" cy="7" r="3"></circle>
        <path d="M16 14s1-3 1-8V4s-1-2-3-2c-1 0-2 .5-2 .5"></path>
        <path d="M13 8a4 4 0 0 1 8 0"></path>
        <path d="M17 4s1-2 3-2c1 0 2 .5 2 .5M19.75 19A8 8 0 0 0 4 21"></path>
        <path d="M2 20c.6.5 1.2 1 2.5 1c2.5 0 2.5-2 5-2c2.6 0 2.4 2 5 2c2.5 0 2.5-2 5-2c1.3 0 1.9.5 2.5 1"></path>
      </g>
    </symbol>

    <symbol viewBox="0 0 24 24" id="butterfly">
      <g fill="none" stroke-linecap="round" stroke-linejoin="round" stroke-width="2">
        <path d="M15.8 2C12 3.8 12 9 12 9s0-5.2-3.8-7M12 9v11"></path>
        <path d="M20 5c-3.5 0-6.5 3.9-8 6.3C10.5 8.9 7.5 5 4 5a2 2 0 0 0-2 2c0 2.3.6 4.4 1.5 5.6C4 13.5 4.9 14 6 14h2c-.9.4-2.1.9-2.6 1.5c-1.6 1.6-.9 3.4.7 4.9c1.6 1.6 3.4 2.3 4.9.7c.3-.3 1-1.1 1-1.1s.6.8 1 1.1c1.6 1.6 3.4.9 4.9-.7c1.6-1.6 2.3-3.4.7-4.9c-.5-.5-1.7-1.1-2.6-1.5h2c1.1 0 2-.5 2.5-1.4c.9-1.2 1.5-3.3 1.5-5.6a2 2 0 0 0-2-2"></path>
      </g>
    </symbol>
  </defs>
</svg>
